<?xml version="1.0" standalone="no"?>
<!DOCTYPE svg PUBLIC "-//W3C//DTD SVG 20010904//EN"
 "http://www.w3.org/TR/2001/REC-SVG-20010904/DTD/svg10.dtd">
<svg version="1.0" xmlns="http://www.w3.org/2000/svg"
 width="500.000000pt" height="659.000000pt" viewBox="0 0 500.000000 659.000000"
 preserveAspectRatio="xMidYMid meet">

<g transform="translate(0.000000,659.000000) scale(0.100000,-0.100000)"
fill="#000000" stroke="none">
<path d="M2090 6575 c-347 -57 -647 -273 -808 -581 -44 -85 -94 -228 -107
-301 l-7 -43 -321 0 c-356 0 -423 -7 -514 -52 -74 -36 -169 -130 -207 -206
-58 -115 -56 -27 -56 -1859 l0 -1681 -24 -49 c-109 -217 -7 -545 246 -789 54
-53 1013 -866 1136 -964 33 -26 54 -34 95 -38 151 -12 247 156 155 273 -12 15
-269 237 -572 492 -303 256 -579 493 -614 527 -141 136 -177 280 -94 369 58
61 163 75 262 34 32 -14 255 -167 538 -371 265 -191 494 -354 510 -362 102
-53 242 37 242 155 0 24 -138 556 -315 1218 -173 647 -315 1195 -315 1217 1
56 29 114 78 158 119 107 298 60 356 -93 9 -24 101 -360 205 -747 168 -630
191 -706 217 -733 74 -78 221 -57 278 40 15 26 20 55 22 121 1 49 8 101 17
121 35 85 144 148 229 135 92 -15 156 -70 194 -168 56 -146 183 -178 299 -76
50 44 71 98 60 155 -9 48 11 101 54 146 84 89 212 94 309 12 42 -35 64 -79 92
-182 37 -139 84 -190 183 -199 41 -4 61 -1 97 18 67 34 80 68 80 203 0 131 18
180 87 232 74 55 162 56 245 4 71 -45 93 -93 169 -378 38 -141 78 -271 89
-289 12 -18 41 -42 66 -54 106 -52 228 10 250 127 9 47 -133 578 -179 673 -57
116 -202 239 -329 280 l-38 12 0 1041 c0 625 -4 1070 -10 1112 -28 200 -185
369 -374 404 -36 7 -193 11 -386 11 l-327 0 -20 83 c-105 422 -435 747 -848
832 -110 23 -290 28 -395 10z m352 -361 c247 -64 445 -248 529 -493 11 -30 19
-58 19 -63 0 -4 -329 -8 -731 -8 l-731 0 5 28 c23 114 110 256 220 358 109
102 239 166 395 194 65 12 219 4 294 -16z m-1292 -1204 c0 -231 3 -287 15
-318 31 -74 90 -114 165 -114 80 0 148 52 170 130 5 21 10 153 10 310 l0 272
750 0 750 0 0 -292 c0 -285 1 -294 23 -332 28 -49 62 -75 116 -87 53 -12 109
2 151 37 59 50 60 55 60 379 l0 295 330 0 330 0 32 -29 33 -29 2 -1084 3
-1083 -59 -32 c-33 -18 -84 -55 -114 -83 l-55 -50 -23 19 c-114 89 -309 131
-461 100 -91 -19 -211 -83 -278 -149 l-61 -59 -73 40 c-122 65 -276 86 -401
54 -60 -16 -162 -61 -200 -89 -20 -15 -23 -4 -148 462 -149 554 -164 591 -271
697 -108 107 -226 155 -382 155 -167 0 -330 -66 -445 -180 -118 -118 -174
-283 -151 -441 8 -59 338 -1312 492 -1872 13 -45 15 -65 7 -60 -7 4 -140 99
-297 212 -158 113 -316 219 -355 237 -96 44 -175 58 -296 51 l-99 -5 0 1556
c0 1503 1 1558 19 1598 11 23 27 47 38 53 12 7 131 10 346 11 l327 0 0 -280z"/>
</g>
</svg>
